<mxfile host="app.diagrams.net" agent="Mozilla/5.0 (Windows NT 10.0; Win64; x64) AppleWebKit/537.36 (KHTML, like Gecko) Chrome/131.0.0.0 Safari/537.36" border="50" scale="3" compressed="false" locked="false" version="26.0.16">
  <diagram name="Blank" id="YmL12bMKpDGza6XwsDPr">
    <mxGraphModel dx="1114" dy="560" grid="0" gridSize="10" guides="1" tooltips="1" connect="1" arrows="1" fold="1" page="0" pageScale="1" pageWidth="827" pageHeight="1169" background="none" math="1" shadow="0">
      <root>
        <mxCell id="X5NqExCQtvZxIxQ7pmgY-0" />
        <mxCell id="1" parent="X5NqExCQtvZxIxQ7pmgY-0" />
        <mxCell id="4OHzKOuLMpINGChD0RYM-2" value="This is the text on the map" style="edgeStyle=orthogonalEdgeStyle;rounded=0;orthogonalLoop=1;jettySize=auto;html=1;entryX=1;entryY=0.5;entryDx=0;entryDy=0;" edge="1" parent="1" source="4OHzKOuLMpINGChD0RYM-1" target="4OHzKOuLMpINGChD0RYM-4">
          <mxGeometry relative="1" as="geometry">
            <mxPoint x="165" y="287" as="targetPoint" />
          </mxGeometry>
        </mxCell>
        <mxCell id="4OHzKOuLMpINGChD0RYM-1" value="" style="whiteSpace=wrap;html=1;aspect=fixed;" vertex="1" parent="1">
          <mxGeometry x="372" y="295" width="80" height="80" as="geometry" />
        </mxCell>
        <mxCell id="4OHzKOuLMpINGChD0RYM-3" value="" style="whiteSpace=wrap;html=1;aspect=fixed;" vertex="1" parent="1">
          <mxGeometry x="372" y="295" width="80" height="80" as="geometry" />
        </mxCell>
        <mxCell id="4OHzKOuLMpINGChD0RYM-5" style="edgeStyle=orthogonalEdgeStyle;rounded=0;orthogonalLoop=1;jettySize=auto;html=1;exitX=0.5;exitY=0;exitDx=0;exitDy=0;" edge="1" parent="1" source="4OHzKOuLMpINGChD0RYM-4">
          <mxGeometry relative="1" as="geometry">
            <mxPoint x="328.1744384765625" y="160.58592224121094" as="targetPoint" />
          </mxGeometry>
        </mxCell>
        <mxCell id="4OHzKOuLMpINGChD0RYM-4" value="" style="whiteSpace=wrap;html=1;aspect=fixed;" vertex="1" parent="1">
          <mxGeometry x="68" y="249" width="80" height="80" as="geometry" />
        </mxCell>
        <mxCell id="4OHzKOuLMpINGChD0RYM-8" value="Centripetal force causes a centripetal acceleration&lt;div&gt;$$F_c=m\cdot a_c$$&lt;/div&gt;" style="edgeStyle=orthogonalEdgeStyle;rounded=0;orthogonalLoop=1;jettySize=auto;html=1;exitX=0.5;exitY=1;exitDx=0;exitDy=0;" edge="1" parent="1" source="4OHzKOuLMpINGChD0RYM-6" target="4OHzKOuLMpINGChD0RYM-7">
          <mxGeometry relative="1" as="geometry" />
        </mxCell>
        <mxCell id="4OHzKOuLMpINGChD0RYM-6" value="Centripetal Force" style="whiteSpace=wrap;html=1;aspect=fixed;" vertex="1" parent="1">
          <mxGeometry x="623" y="138" width="80" height="80" as="geometry" />
        </mxCell>
        <mxCell id="4OHzKOuLMpINGChD0RYM-7" value="Centripetal Acceleration" style="whiteSpace=wrap;html=1;aspect=fixed;" vertex="1" parent="1">
          <mxGeometry x="607" y="342" width="80" height="80" as="geometry" />
        </mxCell>
      </root>
    </mxGraphModel>
  </diagram>
</mxfile>
